# Blender v2.82 (sub 7) OBJ File: 'BoxTest.blend'
# www.blender.org
mtllib BoxTest.mtl
o Cube_Cube.001
v -0.355827 1.790277 0.815897
v -0.416349 1.746454 -0.813885
v 0.025600 2.214183 -0.113039
v 1.770944 1.792577 -0.017097
vt 0.976908 0.964866
vt 0.976664 0.964622
vt 0.976908 0.964622
vt 0.962347 0.696526
vt 0.962103 0.696282
vt 0.962347 0.696282
vt 0.976299 0.852534
vt 0.976055 0.852290
vt 0.976299 0.852290
vt 0.967800 0.783598
vt 0.967556 0.783354
vt 0.967800 0.783354
vn -0.7335 0.6796 0.0090
vn 0.2146 0.7445 -0.6322
vn 0.1829 0.8639 0.4693
vn 0.0114 -0.9996 0.0265
usemtl (null)
s off
f 1/1/1 3/2/1 2/3/1
f 2/4/2 3/5/2 4/6/2
f 4/7/3 3/8/3 1/9/3
f 2/10/4 4/11/4 1/12/4
