# Blender v2.82 (sub 7) OBJ File: 'Raft.blend'
# www.blender.org
mtllib Raft.mtl
o Cube.001_Cube.015
v -0.779596 0.040116 -1.026381
v -0.776413 -0.048827 -1.026381
v -0.803806 0.058677 0.936822
v -0.801008 -0.030267 0.936925
v -0.552577 0.048241 -1.028244
v -0.549393 -0.040703 -1.028244
v -0.604226 0.066801 0.942344
v -0.601428 -0.022142 0.942448
v -0.093132 0.002854 -0.984681
v -0.083770 -0.065047 -0.989615
v -0.066147 0.002854 0.876760
v -0.056786 -0.065047 0.871800
v 0.106961 0.008579 -0.990835
v 0.116324 -0.059322 -0.995768
v 0.133860 0.008579 0.867922
v 0.143221 -0.059323 0.862962
v -0.309790 0.056828 -0.069328
v -0.307871 -0.059982 -0.069461
v -0.289708 0.060663 0.960302
v -0.308098 -0.059982 0.950778
v -0.118723 0.059982 -0.082577
v -0.116804 -0.056828 -0.082710
v -0.098183 0.063817 0.960302
v -0.116572 -0.056828 0.950778
v 0.188945 0.000658 -1.022077
v 0.177193 -0.051027 -1.020454
v 0.203288 0.017685 1.000117
v 0.191536 -0.034000 1.001740
v 0.327781 -0.006548 -1.024038
v 0.316029 -0.058233 -1.022415
v 0.313171 0.010474 0.998547
v 0.301419 -0.041211 1.000170
v 0.361684 0.017509 -1.049134
v 0.361684 -0.044500 -1.049222
v 0.362299 0.026909 -0.038698
v 0.361773 -0.044500 -0.045244
v 0.546195 0.017509 -1.049134
v 0.546195 -0.044500 -1.049222
v 0.546632 0.026909 -0.030583
v 0.546106 -0.044500 -0.037129
v -0.513380 0.044501 -1.038284
v -0.513380 -0.044500 -1.038284
v -0.513333 0.044500 0.958779
v -0.513333 -0.044501 0.958779
v -0.328869 0.044501 -1.038284
v -0.328869 -0.044500 -1.038284
v -0.328916 0.044500 0.964653
v -0.328916 -0.044501 0.964653
v 0.569737 0.021315 -0.958669
v 0.569737 -0.049112 -0.958669
v 0.569737 0.021314 0.921837
v 0.569737 -0.049112 0.921837
v 0.808489 0.021315 -0.958669
v 0.808489 -0.049112 -0.958669
v 0.808489 0.021314 0.921837
v 0.808489 -0.049112 0.921837
v 0.836079 0.056814 -0.906568
v 0.837029 -0.058947 -0.906548
v 0.836060 0.036288 0.928901
v 0.837010 -0.058947 0.928901
v 1.042342 0.058947 -0.902113
v 1.043292 -0.056813 -0.902094
v 1.055317 0.038422 0.928901
v 1.056267 -0.056814 0.928901
v 1.078715 0.019494 -0.816003
v 1.081462 -0.052549 -0.816003
v 1.078715 0.019494 0.907024
v 1.081462 -0.052550 0.907024
v 1.173635 0.024295 -0.816003
v 1.176382 -0.047748 -0.816003
v 1.204643 0.024295 0.907024
v 1.207390 -0.047748 0.907024
v -0.838587 -0.033595 0.853913
v -0.838587 -0.125706 0.853913
v -0.838587 -0.033595 0.713197
v -0.838587 -0.125706 0.713197
v 1.238047 -0.033595 0.853913
v 1.238047 -0.125706 0.853913
v 1.238047 -0.033595 0.713197
v 1.238047 -0.125706 0.713197
v -0.856271 -0.041021 0.016476
v -0.856271 -0.118279 0.016476
v -0.857558 -0.041021 -0.107205
v -0.857558 -0.118279 -0.107205
v 1.278499 -0.041021 -0.003140
v 1.278499 -0.118279 -0.003140
v 1.277212 -0.041021 -0.126821
v 1.277212 -0.118279 -0.126821
v -0.759059 -0.041021 -0.928696
v -0.759059 -0.118279 -0.928696
v -0.723924 -0.041021 -1.079821
v -0.723924 -0.118279 -1.079821
v 1.234028 -0.041021 -0.467753
v 1.234028 -0.118279 -0.467753
v 1.269162 -0.041021 -0.618878
v 1.269162 -0.118279 -0.618878
v -0.789500 0.040329 -0.302625
v -0.786317 -0.048615 -0.302625
v -0.562481 0.048453 -0.304489
v -0.559297 -0.040491 -0.304489
v -0.309805 0.060663 0.238938
v -0.328195 -0.059982 0.229413
v -0.118280 0.063817 0.238938
v -0.136669 -0.056828 0.229413
v -0.540351 0.039350 -0.058903
v -0.540351 -0.049651 -0.058903
v -0.355840 0.039350 -0.058903
v -0.355840 -0.049651 -0.058903
v 0.367261 -0.044501 0.927195
v 0.367787 0.026909 0.933742
v 0.552298 0.026909 0.933742
v 0.551772 -0.044501 0.927195
v 0.361684 -0.044500 -0.064474
v 0.361684 0.036148 -0.064563
v 0.546195 0.036148 -0.064563
v 0.546195 -0.044500 -0.064475
v 0.849123 0.059437 0.311405
v 0.850073 -0.056323 0.311411
v 1.068368 0.061571 0.312758
v 1.069318 -0.054190 0.312763
v -0.305943 0.048886 -0.087282
v -0.304024 -0.067924 -0.087415
v -0.114877 0.052040 -0.100531
v -0.112958 -0.064770 -0.100664
v -0.305943 0.046688 -0.087282
v -0.304024 -0.067924 -0.087415
v -0.112958 -0.064770 -0.100664
v -0.114876 0.049842 -0.100531
v -0.303521 0.048887 -0.970220
v -0.301598 -0.067924 -0.970177
v -0.110119 -0.064770 -0.965960
v -0.112042 0.052040 -0.966002
v 1.078715 0.004668 -0.454477
v 1.081462 -0.052549 -0.454477
v 1.204644 0.009469 -0.454477
v 1.207390 -0.047748 -0.454477
v -0.838587 -0.033595 0.853913
v 1.238047 -0.033595 0.853913
v -0.723924 -0.041021 -1.079821
v 1.269162 -0.041021 -0.618878
vt 0.029995 0.474188
vt 0.030073 0.474238
vt 0.029995 0.474238
vt 0.030073 0.474316
vt 0.029995 0.474316
vt 0.030073 0.474366
vt 0.029995 0.474394
vt 0.029995 0.474366
vt 0.030073 0.474394
vt 0.029995 0.474473
vt 0.029916 0.474394
vt 0.029916 0.474366
vt 0.030151 0.474394
vt 0.035962 0.470234
vt 0.035883 0.470312
vt 0.035883 0.470234
vt 0.035962 0.470312
vt 0.035883 0.470390
vt 0.035962 0.470469
vt 0.035883 0.470469
vt 0.035962 0.470547
vt 0.035883 0.470547
vt 0.035805 0.470390
vt 0.035805 0.470469
vt 0.036040 0.470390
vt 0.035962 0.470390
vt 0.383797 0.941639
vt 0.383673 0.941682
vt 0.383673 0.941639
vt 0.383797 0.941806
vt 0.383673 0.941806
vt 0.383797 0.941850
vt 0.383673 0.941930
vt 0.383673 0.941850
vt 0.383797 0.942053
vt 0.383673 0.942053
vt 0.383550 0.941930
vt 0.383550 0.941850
vt 0.383921 0.941930
vt 0.383797 0.941930
vt 0.292212 0.140107
vt 0.292336 0.140231
vt 0.292212 0.140231
vt 0.292212 0.140354
vt 0.292336 0.140354
vt 0.292212 0.140478
vt 0.292336 0.140602
vt 0.292212 0.140602
vt 0.292088 0.140478
vt 0.292088 0.140354
vt 0.292459 0.140478
vt 0.292336 0.140478
vt 0.372822 0.967912
vt 0.372946 0.968036
vt 0.372822 0.968036
vt 0.042878 0.473647
vt 0.042754 0.473647
vt 0.042878 0.473647
vt 0.372946 0.968159
vt 0.372822 0.968283
vt 0.372822 0.968159
vt 0.372946 0.968407
vt 0.372822 0.968407
vt 0.372698 0.968283
vt 0.372698 0.968159
vt 0.373069 0.968283
vt 0.372946 0.968283
vt 0.290662 0.135490
vt 0.290785 0.135580
vt 0.290662 0.135580
vt 0.290662 0.135704
vt 0.290662 0.135794
vt 0.290785 0.135828
vt 0.290662 0.135828
vt 0.290785 0.135951
vt 0.290662 0.135951
vt 0.290538 0.135828
vt 0.290538 0.135794
vt 0.290785 0.135794
vt 0.290909 0.135828
vt 0.029036 0.536379
vt 0.028958 0.536457
vt 0.028958 0.536379
vt 0.029036 0.536457
vt 0.028958 0.536535
vt 0.029036 0.536614
vt 0.028958 0.536614
vt 0.029036 0.536692
vt 0.028958 0.536692
vt 0.028880 0.536614
vt 0.028880 0.536535
vt 0.029036 0.536535
vt 0.029114 0.536614
vt 0.391548 0.969548
vt 0.391424 0.969586
vt 0.391424 0.969548
vt 0.391548 0.969586
vt 0.391424 0.969709
vt 0.391548 0.969747
vt 0.391424 0.969833
vt 0.391424 0.969747
vt 0.391548 0.969957
vt 0.391424 0.969957
vt 0.391301 0.969747
vt 0.391301 0.969833
vt 0.391672 0.969747
vt 0.391548 0.969833
vt 0.306164 0.141697
vt 0.306287 0.141781
vt 0.306164 0.141781
vt 0.306287 0.141905
vt 0.306164 0.141905
vt 0.306164 0.141989
vt 0.306287 0.142028
vt 0.306164 0.142028
vt 0.306164 0.142152
vt 0.306040 0.141989
vt 0.306040 0.142028
vt 0.306411 0.141989
vt 0.306287 0.141989
vt 0.006976 0.459447
vt 0.007099 0.459571
vt 0.006976 0.459571
vt 0.006976 0.459695
vt 0.007099 0.459695
vt 0.006976 0.459819
vt 0.007099 0.459942
vt 0.006976 0.459942
vt 0.006852 0.459695
vt 0.006852 0.459819
vt 0.007223 0.459695
vt 0.007099 0.459819
vt 0.118590 0.637720
vt 0.118714 0.637844
vt 0.118590 0.637844
vt 0.118590 0.637967
vt 0.118714 0.637967
vt 0.118590 0.638091
vt 0.118714 0.638215
vt 0.118590 0.638215
vt 0.118466 0.638091
vt 0.118466 0.637967
vt 0.118837 0.638091
vt 0.118714 0.638091
vt 0.118714 0.637720
vt 0.118590 0.637844
vt 0.118590 0.637720
vt 0.118714 0.637844
vt 0.118590 0.637967
vt 0.118714 0.638091
vt 0.118590 0.638091
vt 0.118714 0.638215
vt 0.118590 0.638215
vt 0.118466 0.637967
vt 0.118466 0.638091
vt 0.118837 0.637967
vt 0.118714 0.637967
vt 0.030151 0.474366
vt 0.029916 0.474316
vt 0.029995 0.474159
vt 0.030073 0.474188
vt 0.383921 0.941806
vt 0.383550 0.941806
vt 0.383673 0.941559
vt 0.290909 0.135704
vt 0.290785 0.135704
vt 0.290538 0.135704
vt 0.290785 0.135456
vt 0.290662 0.135456
vt 0.042754 0.473523
vt 0.042630 0.473647
vt 0.042630 0.473523
vt 0.042754 0.473523
vt 0.042630 0.473523
vt 0.042754 0.473647
vt 0.042507 0.473647
vt 0.042630 0.473647
vt 0.373069 0.968159
vt 0.391548 0.969709
vt 0.391301 0.969709
vt 0.391424 0.969462
vt 0.022478 0.552830
vt 0.022601 0.552954
vt 0.022601 0.552830
vt 0.022478 0.552830
vt 0.022478 0.552954
vt 0.022478 0.552954
vt 0.022478 0.552954
vt 0.022601 0.552954
vt 0.022601 0.552830
vt 0.022478 0.552830
vt 0.022601 0.552954
vt 0.022601 0.552830
vt 0.306040 0.141905
vt 0.306287 0.141657
vt 0.306164 0.141657
vt 0.030073 0.474473
vt 0.383797 0.941682
vt 0.383921 0.941850
vt 0.292336 0.140107
vt 0.292459 0.140354
vt 0.372946 0.967912
vt 0.290785 0.135490
vt 0.290909 0.135794
vt 0.029114 0.536535
vt 0.391672 0.969833
vt 0.306287 0.141697
vt 0.306287 0.142152
vt 0.306411 0.142028
vt 0.007099 0.459447
vt 0.007223 0.459819
vt 0.118714 0.637720
vt 0.118837 0.637967
vt 0.118837 0.638091
vt 0.030151 0.474316
vt 0.030073 0.474159
vt 0.383797 0.941559
vt 0.042507 0.473647
vt 0.391672 0.969709
vt 0.391548 0.969462
vt 0.306411 0.141905
vn -0.9994 -0.0315 -0.0111
vn -0.0277 0.0003 0.9996
vn 0.9993 0.0358 0.0137
vn -0.0082 -0.0003 -1.0000
vn -0.0358 0.9994 -0.0008
vn 0.0358 -0.9994 0.0008
vn -0.9904 -0.1376 0.0144
vn 0.0459 -0.0665 0.9967
vn 0.9904 0.1376 -0.0143
vn -0.0326 0.0680 -0.9972
vn -0.0286 0.9996 0.0004
vn 0.0286 -0.9996 -0.0004
vn -0.9885 0.1485 0.0275
vn 0.0013 -0.0789 0.9969
vn 0.9886 -0.1507 0.0004
vn -0.0692 0.0000 -0.9976
vn -0.0165 0.9998 -0.0124
vn 0.0166 -0.9999 0.0011
vn -0.9751 0.2219 0.0050
vn 0.0161 0.0277 0.9995
vn 0.9751 -0.2214 0.0089
vn -0.0156 -0.0278 -0.9995
vn 0.0654 0.9978 -0.0089
vn -0.0517 -0.9986 0.0080
vn -1.0000 -0.0000 0.0000
vn 0.0000 -1.0000 -0.0000
vn 1.0000 -0.0000 -0.0000
vn 0.0000 0.0014 -1.0000
vn -0.0000 0.9998 -0.0189
vn -0.9996 0.0000 0.0265
vn -0.0318 0.0000 0.9995
vn 0.9996 0.0000 0.0275
vn 0.0000 0.0000 -1.0000
vn 0.0000 1.0000 0.0053
vn 0.0000 -1.0000 -0.0053
vn 0.0000 -0.0000 1.0000
vn 0.0000 1.0000 0.0000
vn -0.9997 -0.0082 -0.0215
vn 0.9997 0.0082 -0.0214
vn 0.0216 0.0000 -0.9998
vn -0.0103 0.9999 -0.0020
vn 0.0097 -1.0000 0.0020
vn -0.9993 -0.0381 0.0004
vn 0.9958 0.0380 -0.0838
vn -0.0505 0.9979 0.0409
vn 0.0381 -0.9993 -0.0033
vn 0.9999 -0.0000 -0.0104
vn 0.0092 -0.0000 1.0000
vn -0.9999 0.0000 0.0104
vn -0.0092 0.0000 -1.0000
vn 0.9740 0.0000 0.2264
vn -0.2253 -0.0000 0.9743
vn -0.9740 0.0000 -0.2264
vn 0.2253 0.0000 -0.9743
vn 0.0359 -0.9992 0.0159
vn -0.0402 0.9991 -0.0153
vn 0.9990 0.0315 0.0330
vn -0.9993 -0.0358 -0.0137
vn 0.0165 -0.9999 -0.0005
vn -0.0165 0.9999 0.0005
vn 0.9885 -0.1485 -0.0275
vn -0.9886 0.1508 -0.0019
vn -0.0002 -1.0000 0.0050
vn 0.0000 1.0000 -0.0051
vn 0.9997 -0.0000 -0.0263
vn -0.9996 0.0000 -0.0275
vn -0.0000 -0.0913 0.9958
vn -1.0000 0.0068 0.0056
vn 1.0000 -0.0068 -0.0059
vn -0.0000 0.0011 1.0000
vn 0.0438 0.0909 -0.9949
vn 0.0098 -0.9999 -0.0041
vn -0.0097 0.9993 0.0373
vn 0.9997 0.0082 0.0215
vn -0.9999 -0.0082 0.0107
vn 0.0692 0.0000 0.9976
vn -0.0163 0.9999 0.0024
vn -0.0689 0.0000 -0.9976
vn 0.0220 0.0000 -0.9998
vn -0.9999 -0.0167 -0.0027
vn 0.0165 -0.9999 0.0001
vn 0.9999 0.0165 0.0033
vn 0.0381 -0.9993 -0.0000
vn -0.0381 0.9992 -0.0109
vn 0.9993 0.0381 -0.0004
vn -0.9993 -0.0381 -0.0016
vn -0.9993 -0.0358 -0.0113
vn 0.9978 0.0163 0.0635
vn -0.0173 0.9998 -0.0119
vn 0.0165 -0.9999 0.0011
vn 0.0517 0.9986 -0.0080
vn -0.0654 -0.9978 0.0089
vn -0.9997 -0.0100 -0.0212
vn -0.0097 1.0000 -0.0020
vn 0.0103 -0.9999 0.0020
vn -0.9988 -0.0479 0.0000
vn 0.9952 0.0478 -0.0854
vn -0.0381 0.9983 0.0442
vn 0.0505 -0.9987 -0.0000
vn 0.0402 -0.9991 0.0153
vn -0.0359 0.9992 -0.0159
vn 0.9988 0.0357 0.0332
vn -0.9976 -0.0163 -0.0678
vn 0.0000 -1.0000 0.0051
vn 0.0002 1.0000 -0.0050
vn 0.0097 -0.9999 -0.0040
vn -0.0100 0.9993 0.0373
vn 0.9997 0.0100 0.0212
vn -0.0165 0.9999 0.0025
vn 0.0696 -0.0000 0.9976
vn -0.9999 -0.0165 -0.0028
vn 0.0165 -0.9999 0.0000
vn 0.9999 0.0167 0.0033
vn 0.9988 0.0479 0.0000
usemtl Material.001
s off
f 97/1/1 4/2/1 3/3/1
f 3/3/2 8/4/2 7/5/2
f 100/6/3 5/7/3 99/8/3
f 6/9/4 1/10/4 5/7/4
f 99/8/5 1/11/5 97/12/5
f 100/6/6 2/13/6 6/9/6
f 10/14/7 11/15/7 9/16/7
f 12/17/8 15/18/8 11/15/8
f 15/18/9 14/19/9 13/20/9
f 13/20/10 10/21/10 9/22/10
f 11/23/11 13/20/11 9/24/11
f 12/25/12 14/19/12 16/26/12
f 102/27/13 19/28/13 101/29/13
f 19/28/14 24/30/14 23/31/14
f 104/32/15 21/33/15 103/34/15
f 21/33/16 18/35/16 17/36/16
f 103/34/17 17/37/17 101/38/17
f 104/32/18 18/39/18 22/40/18
f 25/41/19 28/42/19 27/43/19
f 28/42/20 31/44/20 27/43/20
f 32/45/21 29/46/21 31/44/21
f 29/46/22 26/47/22 25/48/22
f 31/44/23 25/49/23 27/50/23
f 32/45/24 26/51/24 30/52/24
f 33/53/25 113/54/25 114/55/25
f 36/56/26 112/57/26 109/58/26
f 116/59/27 37/60/27 115/61/27
f 37/60/28 34/62/28 33/63/28
f 115/61/29 33/64/29 114/65/29
f 116/59/26 34/66/26 38/67/26
f 105/68/30 44/69/30 43/70/30
f 44/69/31 47/71/31 43/70/31
f 107/72/32 46/73/32 45/74/32
f 45/74/33 42/75/33 41/76/33
f 107/72/34 41/77/34 105/78/34
f 108/79/35 42/80/35 46/73/35
f 50/81/25 51/82/25 49/83/25
f 52/84/36 55/85/36 51/82/36
f 55/85/27 54/86/27 53/87/27
f 53/87/33 50/88/33 49/89/33
f 55/85/37 49/90/37 51/91/37
f 56/92/26 50/93/26 54/86/26
f 118/94/38 59/95/38 117/96/38
f 60/97/36 63/98/36 59/95/36
f 120/99/39 61/100/39 119/101/39
f 61/100/40 58/102/40 57/103/40
f 117/104/41 61/100/41 57/105/41
f 118/106/42 62/107/42 120/99/42
f 133/108/43 68/109/43 67/110/43
f 67/110/36 72/111/36 71/112/36
f 135/113/44 70/114/44 69/115/44
f 70/114/33 65/116/33 69/115/33
f 133/117/45 69/115/45 65/118/45
f 134/119/46 70/114/46 136/120/46
f 73/121/27 76/122/27 75/123/27
f 76/122/36 79/124/36 75/123/36
f 80/125/25 77/126/25 79/124/25
f 77/126/33 74/127/33 73/128/33
f 75/129/26 77/126/26 73/130/26
f 76/131/37 78/132/37 80/125/37
f 81/133/47 84/134/47 83/135/47
f 84/134/48 87/136/48 83/135/48
f 88/137/49 85/138/49 87/136/49
f 85/138/50 82/139/50 81/140/50
f 87/136/26 81/141/26 83/142/26
f 88/137/37 82/143/37 86/144/37
f 90/145/51 91/146/51 89/147/51
f 92/148/52 95/149/52 91/146/52
f 95/149/53 94/150/53 93/151/53
f 93/151/54 90/152/54 89/153/54
f 91/154/26 93/151/26 89/155/26
f 92/156/37 94/150/37 96/157/37
f 8/4/55 98/158/55 100/6/55
f 7/5/56 97/12/56 3/159/56
f 8/4/57 99/8/57 7/5/57
f 1/160/58 98/161/58 97/1/58
f 20/162/59 104/32/59 24/30/59
f 19/163/60 103/34/60 101/38/60
f 23/31/61 104/32/61 103/34/61
f 17/164/62 102/27/62 101/29/62
f 44/165/63 108/79/63 48/166/63
f 43/167/64 107/72/64 105/78/64
f 48/166/65 107/72/65 47/71/65
f 42/168/66 105/68/66 41/169/66
f 109/170/67 111/171/67 110/172/67
f 36/173/68 110/172/68 35/174/68
f 40/175/69 111/171/69 112/57/69
f 35/176/37 111/171/37 39/177/37
f 113/178/70 115/61/70 114/65/70
f 39/177/71 36/56/71 35/176/71
f 64/179/72 118/106/72 120/99/72
f 63/98/73 117/104/73 59/180/73
f 63/98/74 120/99/74 119/101/74
f 57/181/75 118/94/75 117/96/75
f 123/182/76 122/183/76 124/184/76
f 128/185/77 129/186/77 125/187/77
f 124/184/78 128/185/78 123/182/78
f 123/182/16 125/187/16 121/188/16
f 122/183/36 125/187/36 126/189/36
f 122/183/36 127/190/36 124/184/36
f 132/191/79 130/192/79 129/186/79
f 125/187/80 130/192/80 126/189/80
f 127/190/81 130/192/81 131/193/81
f 128/185/82 131/193/82 132/191/82
f 72/111/83 134/119/83 136/120/83
f 71/112/84 133/117/84 67/194/84
f 72/111/85 135/113/85 71/112/85
f 66/195/86 133/108/86 65/196/86
f 97/1/87 98/161/87 4/2/87
f 3/3/2 4/2/2 8/4/2
f 100/6/3 6/9/3 5/7/3
f 6/9/4 2/197/4 1/10/4
f 99/8/5 5/7/5 1/11/5
f 100/6/6 98/158/6 2/13/6
f 10/14/7 12/17/7 11/15/7
f 12/17/8 16/26/8 15/18/8
f 15/18/9 16/26/9 14/19/9
f 13/20/10 14/19/10 10/21/10
f 11/23/11 15/18/11 13/20/11
f 12/25/12 10/21/12 14/19/12
f 102/27/13 20/198/13 19/28/13
f 19/28/14 20/198/14 24/30/14
f 104/32/88 22/40/88 21/33/88
f 21/33/16 22/40/16 18/35/16
f 103/34/89 21/33/89 17/37/89
f 104/32/90 102/199/90 18/39/90
f 25/41/19 26/200/19 28/42/19
f 28/42/20 32/45/20 31/44/20
f 32/45/21 30/52/21 29/46/21
f 29/46/22 30/52/22 26/47/22
f 31/44/91 29/46/91 25/49/91
f 32/45/92 28/201/92 26/51/92
f 33/53/25 34/202/25 113/54/25
f 36/56/26 40/175/26 112/57/26
f 116/59/27 38/67/27 37/60/27
f 37/60/28 38/67/28 34/62/28
f 115/61/29 37/60/29 33/64/29
f 116/59/26 113/178/26 34/66/26
f 105/68/30 106/203/30 44/69/30
f 44/69/31 48/166/31 47/71/31
f 107/72/32 108/79/32 46/73/32
f 45/74/33 46/73/33 42/75/33
f 107/72/34 45/74/34 41/77/34
f 108/79/35 106/204/35 42/80/35
f 50/81/25 52/84/25 51/82/25
f 52/84/36 56/92/36 55/85/36
f 55/85/27 56/92/27 54/86/27
f 53/87/33 54/86/33 50/88/33
f 55/85/37 53/87/37 49/90/37
f 56/92/26 52/205/26 50/93/26
f 118/94/93 60/97/93 59/95/93
f 60/97/36 64/179/36 63/98/36
f 120/99/39 62/107/39 61/100/39
f 61/100/40 62/107/40 58/102/40
f 117/104/94 119/101/94 61/100/94
f 118/106/95 58/206/95 62/107/95
f 133/108/96 134/207/96 68/109/96
f 67/110/36 68/109/36 72/111/36
f 135/113/97 136/120/97 70/114/97
f 70/114/33 66/208/33 65/116/33
f 133/117/98 135/113/98 69/115/98
f 134/119/99 66/209/99 70/114/99
f 73/121/27 74/210/27 76/122/27
f 76/122/36 80/125/36 79/124/36
f 80/125/25 78/132/25 77/126/25
f 77/126/33 78/132/33 74/127/33
f 75/129/26 79/124/26 77/126/26
f 76/131/37 74/211/37 78/132/37
f 81/133/47 82/212/47 84/134/47
f 84/134/48 88/137/48 87/136/48
f 88/137/49 86/144/49 85/138/49
f 85/138/50 86/144/50 82/139/50
f 87/136/26 85/138/26 81/141/26
f 88/137/37 84/213/37 82/143/37
f 90/145/51 92/148/51 91/146/51
f 92/148/52 96/157/52 95/149/52
f 95/149/53 96/157/53 94/150/53
f 93/151/54 94/150/54 90/152/54
f 91/154/26 95/149/26 93/151/26
f 92/156/37 90/214/37 94/150/37
f 8/4/100 4/215/100 98/158/100
f 7/5/101 99/8/101 97/12/101
f 8/4/102 100/6/102 99/8/102
f 1/160/58 2/216/58 98/161/58
f 20/162/59 102/199/59 104/32/59
f 19/163/60 23/31/60 103/34/60
f 23/31/61 24/30/61 104/32/61
f 17/164/103 18/217/103 102/27/103
f 44/165/104 106/204/104 108/79/104
f 43/167/105 47/71/105 107/72/105
f 48/166/65 108/79/65 107/72/65
f 42/168/66 106/203/66 105/68/66
f 109/170/67 112/57/67 111/171/67
f 36/173/68 109/170/68 110/172/68
f 40/175/69 39/177/69 111/171/69
f 35/176/37 110/218/37 111/171/37
f 113/178/70 116/59/70 115/61/70
f 39/177/71 40/175/71 36/56/71
f 64/179/106 60/219/106 118/106/106
f 63/98/107 119/101/107 117/104/107
f 63/98/108 64/179/108 120/99/108
f 57/181/75 58/220/75 118/94/75
f 123/182/76 121/188/76 122/183/76
f 128/185/109 132/191/109 129/186/109
f 124/184/36 127/190/36 128/185/36
f 123/182/16 128/185/16 125/187/16
f 122/183/110 121/188/110 125/187/110
f 122/183/36 126/189/36 127/190/36
f 132/191/79 131/193/79 130/192/79
f 125/187/111 129/186/111 130/192/111
f 127/190/112 126/189/112 130/192/112
f 128/185/113 127/190/113 131/193/113
f 72/111/83 68/221/83 134/119/83
f 71/112/84 135/113/84 133/117/84
f 72/111/114 136/120/114 135/113/114
f 66/195/96 134/207/96 133/108/96
l 137 138
l 140 139
o Floaters_Cube.013
fl -0.838587 -0.033595 0.853913
fl 1.238047 -0.033595 0.853913
fl -0.723924 -0.041021 -1.079821
fl 1.269162 -0.041021 -0.618878
fl -0.266324 -0.035808 0.487572
fl 0.640866 -0.035808 0.391862
fl -0.270141 -0.038808 -0.521412
fl 0.653434 -0.038808 -0.248626
fl 0.133864 -0.038808 -0.002514
fl -0.791334 -0.038808 -0.020745
fl 0.389092 -0.038808 -0.863906
fl 1.250484 -0.038808 0.056735
fl 0.225017 -0.038808 0.881666
