# Blender v2.82 (sub 7) OBJ File: 'TestBox.blend'
# www.blender.org
o Cube
v 1.736631 1.000000 -3.399179
v 1.736631 -1.000000 -3.399179
v 1.736631 1.000000 3.399179
v 1.736631 -1.000000 3.399179
v -1.736631 1.000000 -3.399179
v -1.736631 -1.000000 -3.399179
v -1.736631 1.000000 3.399179
v -1.736631 -1.000000 3.399179
vt 0.319397 0.707579
vt 0.479043 0.704864
vt 0.479043 0.707579
vt 0.638688 0.702148
vt 0.638688 0.704864
vt 0.479043 0.713009
vt 0.638688 0.710294
vt 0.638688 0.713009
vt 0.638688 0.707579
vt 0.798334 0.704864
vt 0.798334 0.707579
vt 0.479043 0.710294
vt 0.319397 0.704864
vt 0.479043 0.702148
vn 0.0000 1.0000 0.0000
vn 0.0000 0.0000 1.0000
vn -1.0000 0.0000 0.0000
vn 0.0000 -1.0000 0.0000
vn 1.0000 0.0000 0.0000
vn 0.0000 0.0000 -1.0000
s off
f 5/1/1 3/2/1 1/3/1
f 3/2/2 8/4/2 4/5/2
f 7/6/3 6/7/3 8/8/3
f 2/9/4 8/10/4 6/11/4
f 1/3/5 4/5/5 2/9/5
f 5/12/6 2/9/6 6/7/6
f 5/1/1 7/13/1 3/2/1
f 3/2/2 7/14/2 8/4/2
f 7/6/3 5/12/3 6/7/3
f 2/9/4 4/5/4 8/10/4
f 1/3/5 3/2/5 4/5/5
f 5/12/6 1/3/6 2/9/6
